<svg xmlns="http://www.w3.org/2000/svg" viewBox="0 0 2000 2000"><defs><style>.cls-1{fill:#00dfa3;}.cls-2{fill:#000015;}</style></defs><g id="Layer_2" data-name="Layer 2"><g id="Layer_1-2" data-name="Layer 1"><circle class="cls-1" cx="1000" cy="1000" r="1000"/><path class="cls-2" d="M1155.41,322.06Z"/><path class="cls-2" d="M1468.58,447.6c7.58,6.06,2,1.5,0,0Z"/><path class="cls-2" d="M1555.73,954.13l.32-.42-1.74,2.19c.34-.41.68-.82,1-1.24C1555.46,954.48,1555.6,954.31,1555.73,954.13Z"/><path class="cls-2" d="M1073.49,1016.67c-3.65-3.08-3-2.49-1.71-1.4.44.35.87.71,1.3,1.07Z"/><path class="cls-2" d="M1686.22,714.49a409.83,409.83,0,0,0-93.84-230.9q-8.93-10.75-18.63-20.82l0,0a599.29,599.29,0,0,0-96-82.26c-71.48-49.48-153.7-84.05-238.22-103.76-122.24-28.5-252.67-30.44-374.28,2S630.94,376.4,540.41,463.51c-85,81.75-149.56,183.68-188,295.07-40.68,117.83-49.65,245.23-29.19,368a733.42,733.42,0,0,0,139.43,321.94c75.24,98.63,173.46,179.08,286.86,230,117.75,52.92,248.18,75.63,376.87,63.33,124.44-11.9,245.3-54.19,348.71-124.75a818.33,818.33,0,0,0,71.38-55c12-10.25,11.32-32,0-42.43-12.73-11.68-29.67-10.93-42.42,0-5.06,4.34-10.14,8.65-15.3,12.86q-3.95,3.24-8,6.42l-3.56,2.81-.71.57-1.31,1q-17.18,13.08-35.13,25.12a715.76,715.76,0,0,1-75.8,44.34c-13,6.55-26.17,12.64-39.5,18.45l-1.14.5-3.37,1.38q-4.8,2-9.63,3.86-10.76,4.23-21.65,8.09a707.89,707.89,0,0,1-85.1,24.38q-21.9,4.83-44.08,8.26c-2.9.45-5.92,1.11-8.9,1.48-.6,0-1.42,0-2,.11l-5.92.73q-11.88,1.41-23.82,2.44a727.57,727.57,0,0,1-93.38,1.94q-23.23-1-46.38-3.52-5.43-.6-10.86-1.27c-1.27-.15-2.55-.31-3.82-.48l-1.41-.21c-8-1.17-15.89-2.4-23.8-3.81a711.66,711.66,0,0,1-87.91-21.46q-21.36-6.69-42.26-14.7-5.48-2.1-10.92-4.3l-4.34-1.76-2.9-1.21-2.88-1.23-4.28-1.87q-5.88-2.59-11.71-5.3a714.78,714.78,0,0,1-78.66-42.63Q675,1569,657.15,1556.22q-8.46-6-16.74-12.34l-1.71-1.31-3.19-2.5q-6-4.74-11.88-9.6a719.36,719.36,0,0,1-63.42-59.15q-14.34-15.09-27.79-31-6.72-7.95-13.22-16.1c-1.14-1.43-2.26-2.87-3.4-4.3-2.61-3.28-.48.34.47.82-1.48-.56-5.66-7.64-6.45-8.69a716.7,716.7,0,0,1-46.51-70.7c-14-24.29-28.06-49.78-38-76.06.45,1.15,2.36,5.69.38.87-.71-1.72-1.42-3.43-2.11-5.15q-1.89-4.63-3.71-9.31-4.06-10.41-7.78-20.93-7.12-20.08-13-40.58a711.52,711.52,0,0,1-18.76-84.13q-.91-5.65-1.73-11.33c-.15-1-.31-2.09-.45-3.14-.06-.54-.12-1-.16-1.42q-1.44-11.48-2.52-23-2.18-23.46-2.84-47a725,725,0,0,1,3.25-91.67c.68-6.81,1.47-13.61,2.32-20.4.11-.83.18-1.4.22-1.77.14-.88.28-1.76.41-2.64q.9-6.15,1.91-12.31,3.47-21.11,8.18-42a710.43,710.43,0,0,1,23.52-81.14q3.53-9.87,7.32-19.64,1.8-4.61,3.66-9.2c.55-1.36,1.1-2.72,1.66-4.07l.75-1.81s0-.09.07-.14c5.59-12.71,11.31-25.34,17.52-37.76A715.48,715.48,0,0,1,485.28,623q11.33-17.24,23.63-33.8c1.94-2.61,3.92-5.19,5.88-7.79v0l2.61-3.33q6.72-8.49,13.69-16.79a722.92,722.92,0,0,1,56.43-59.8q15.6-14.73,32-28.52c6.62-5.55,13.36-10.94,20.15-16.27l.7-.52c1.23-.92,2.46-1.86,3.69-2.79q5.08-3.81,10.24-7.55a738.49,738.49,0,0,1,75.38-48q19.41-10.74,39.45-20.28,9.51-4.53,19.16-8.77l4.3-1.88,4.27-1.79,1.55-.64,6.54-2.63a688.27,688.27,0,0,1,85.44-27.61q22-5.55,44.38-9.62,11.25-2,22.56-3.69l3.82-.56,1.37-.16c4.42-.54,8.83-1.07,13.25-1.54a712.71,712.71,0,0,1,94.57-3.33q22.68.62,45.3,2.43,10.32.83,20.63,1.92,5.06.53,10.11,1.13l5.57.67c.76.1,2.34.37,3.42.57l-2.58-.48c26.28,4.93,52.57,8.51,78.61,14.88a717.27,717.27,0,0,1,69.41,20.7q16.2,5.76,32.1,12.3l2.41,1c2.25,1,4.5,1.94,6.74,2.93q7.13,3.17,14.17,6.48,26.51,12.5,51.82,27.31,21.75,12.75,42.43,27.23,9.13,6.4,18,13.15l0,0-.85-.69c1.12.9,2.26,1.77,3.39,2.66,2.71,2.13,5.4,4.3,8.06,6.48a504.16,504.16,0,0,1,43.1,39.55c3,3.12,6,6.3,8.92,9.45l.06.07q11.88,12.38,22.64,25.73l1.72,2.16c1.5,2,3,4,4.48,6q5.06,7,9.79,14.14a377.3,377.3,0,0,1,30.88,57.16,378.12,378.12,0,0,1,23.72,87.07,383.45,383.45,0,0,1,0,92.53,377.12,377.12,0,0,1-23.85,87.38,377.62,377.62,0,0,1-22.87,44.35q-6.84,11.33-14.47,22.14c-2.36,3.34-4.78,6.63-7.24,9.9l1.14-1.42-1.46,1.84-.47.64c-.84,1.12-2.29,2.85-1,1.13q-1.85,2.33-3.73,4.61a375.32,375.32,0,0,1-36.87,38.68q-4.74,4.3-9.62,8.45c-1.75,1.49-3.52,3-5.3,4.42l-3,2.45-1,.76c-7.79,5.55-15.38,11.32-23.42,16.54a338.21,338.21,0,0,1-141.85,53,384.38,384.38,0,0,1-92.58,0,341.63,341.63,0,0,1-158.53-64.53q-2.29-1.67-4.56-3.37l-.38-.29.55.46-1-.79c-.43-.34-.89-.73-1.3-1.07-2.36-1.9-4.76-3.76-7.09-5.71Q1055.6,1002,1047,993.8q-12.18-11.55-23.3-24.17l-.09-.11-3.4-3.92-.29-.34c-.7-.81-1.39-1.64-2.08-2.46-.93-1.11-1.86-2.22-2.78-3.35l-.28-.32-.87-1.15q-6-8-11.27-16.41A218.95,218.95,0,0,1,969.32,851a263.39,263.39,0,0,1,0-60.58,221.39,221.39,0,0,1,36.88-96q3.27-4.9,6.76-9.65c.27-.37.68-.89,1.11-1.43l-1.35,1.64c1.25-1.51,2.43-3.08,3.67-4.6q7.46-9.09,15.72-17.48t17.24-16q2.25-1.9,4.54-3.75l.5-.39-.78.55,1.13-.81c.57-.43,1.24-.91,1.8-1.3,2.28-1.67,4.53-3.37,6.86-5a258.33,258.33,0,0,1,42.22-23.46q9.15-3.63,18.52-6.55a188.32,188.32,0,0,0-28,27.58c-27.7,33.73-44,73.5-47.52,117.07-3.3,41.13,7.3,84,28.76,119.18,20.54,33.67,51.32,62.24,87.36,78.56,40.75,18.45,84.94,23.83,128.89,15,79.36-16,145.53-84.09,157.75-164.39a234.93,234.93,0,0,0,3.06-34.31c-.14-34.88-9.12-70.25-26.59-100.61a199.49,199.49,0,0,0-30.38-41.9l-.58-.66c-10.1-11-22.08-20.45-33.92-29.48a261.19,261.19,0,0,0-34.06-22.07c-26.84-14.49-56.18-25.11-86.3-30.09-62.19-10.29-125.31-1.22-181.5,27.66-97,49.83-158.28,156.07-153.28,264.9,1.49,32.3,8.05,64.47,20.43,94.36,6.34,15.28,13.38,30.1,22.18,44.14A296.52,296.52,0,0,0,971,999.7c.53.73,1.1,1.45,1.69,2.18,55,67.42,134.24,116,219,135.37,42.83,9.79,87.5,13,131.21,8.4a417.48,417.48,0,0,0,130.34-35.45c74-33.66,137.07-91.59,178.35-161.5S1692.48,795.6,1686.22,714.49Zm-329.34,65a82.27,82.27,0,0,1-5.48,9.67c-.37.56-.77,1.11-1.17,1.65-1.43,1.66-2.88,3.3-4.43,4.85s-3.45,3.22-5.22,4.79c-.33.19-.6.35-.74.45a83.4,83.4,0,0,1-10.18,5.83,86,86,0,0,1-13.2,3.63,89.07,89.07,0,0,1-13.86,0,85.87,85.87,0,0,1-13.17-3.62,82.76,82.76,0,0,1-9.66-5.48c-.57-.38-1.11-.77-1.66-1.17-1.65-1.43-3.3-2.88-4.85-4.43s-3.22-3.45-4.78-5.22l-.45-.74a82.18,82.18,0,0,1-5.84-10.18,84.8,84.8,0,0,1-3.62-13.2,86.67,86.67,0,0,1,0-13.86,85.53,85.53,0,0,1,3.61-13.17,82.34,82.34,0,0,1,5.49-9.67c.37-.56.76-1.11,1.16-1.65,1.44-1.66,2.88-3.3,4.43-4.85s3.45-3.22,5.23-4.78l.73-.45A82.18,82.18,0,0,1,1289.4,712a85.1,85.1,0,0,1,13.2-3.62,86.67,86.67,0,0,1,13.86,0,50.07,50.07,0,0,1,22.84,9.09c.56.38,1.11.77,1.66,1.17,1.65,1.44,3.29,2.88,4.84,4.43s3.23,3.45,4.79,5.23c.19.32.35.59.45.73a83.4,83.4,0,0,1,5.83,10.18,85.77,85.77,0,0,1,3.64,13.25c.18,2.29.3,4.58.31,6.88s-.13,4.59-.31,6.88A86.2,86.2,0,0,1,1356.88,779.46ZM1343,798.6c0,.19-.49.57-1.1,1A10.51,10.51,0,0,0,1343,798.6Zm-72.74-5.74c-.19,0-.57-.49-1-1.1A10.51,10.51,0,0,0,1270.29,792.86Zm5.74-72.74c0-.19.49-.57,1.1-1A10.51,10.51,0,0,0,1276,720.12Zm73.71,6.84a10.51,10.51,0,0,0-1-1.1C1349,725.86,1349.34,726.35,1349.74,727Zm-9.39,150.24c-.16.14-.38.35-.62.59s-.34.24-.53.39q-3.17,2.34-6.44,4.55a140.34,140.34,0,0,1-62.28,24.3,179.91,179.91,0,0,1-38.54,0,177.32,177.32,0,0,1-36.82-10.11,175.52,175.52,0,0,1-25.46-14.19c-1.85-1.25-3.67-2.54-5.48-3.86l1,.81c-.43-.37-.87-.72-1.32-1.08l-.58-.42a31,31,0,0,1-2.51-2.12q-5.58-4.71-10.76-9.88-5.79-5.79-11-12.11c-.13-.16-.35-.38-.58-.62l-.39-.53q-2.35-3.17-4.56-6.44a140.37,140.37,0,0,1-24.29-62.28,179.91,179.91,0,0,1,0-38.54,140.51,140.51,0,0,1,24.29-62.28q1.88-2.77,3.86-5.47l-.8.94c.36-.43.72-.87,1.07-1.32.14-.19.28-.39.43-.58a29.1,29.1,0,0,1,2.11-2.5q4.73-5.6,9.88-10.77c3.86-3.86,7.91-7.54,12.11-11,.17-.13.38-.34.63-.58l.53-.39q3.16-2.36,6.43-4.56A174.52,174.52,0,0,1,1195.12,633a176.7,176.7,0,0,1,36.82-10.11,179.91,179.91,0,0,1,38.54,0A176.53,176.53,0,0,1,1307.3,633a174.52,174.52,0,0,1,25.46,14.18q2.77,1.88,5.48,3.86l-1-.8c.43.36.87.72,1.32,1.07l.59.43c.22.16.47.36.73.57l-.13,0-1.19-1-.37-.27c.53.46,1,.85,1.4,1.18-40-11.81-87.47,2.06-114.05,34.27a116.66,116.66,0,0,0-27.06,66c-1.87,22,4.17,45.46,15.57,64.24,11.11,18.28,27.85,34.15,47.44,43a116.38,116.38,0,0,0,71.69,8.41,101.45,101.45,0,0,0,25.78-8.81c-2.12,2.36-4.3,4.68-6.55,6.93Q1346.67,872,1340.35,877.2Zm-325.83,81.65c-.5-.62-1-1.24-1.44-1.89.52.67,1,1.34,1.55,2Z"/><path class="cls-2" d="M1014.06,683.38c3.35-4,1.54-1.92,0,0Z"/><path class="cls-2" d="M1054.38,642.83c4.46-3.14,3.72-2.67,2.15-1.56l-1.8,1.3Z"/><path class="cls-2" d="M1434.18,1418.62l-14.85,12.16q-7.44,6.06-14.77,12.23l-14.71,12.29q-8.4,7.1-16.76,14.22-7.66-8.83-15.35-17.65l-12.35-14.06-12.4-14c-8.3-9.31-16.59-18.62-25-27.85s-16.74-18.46-25.13-27.66l-.05-.06a23,23,0,0,0-32.44-1.37l-1.56,1.43q-13.38,12.29-26.72,24.63t-26.56,24.79c-8.85,8.27-17.62,16.61-26.41,24.94l-5.17,4.94-5.9-6.1-25.5-26.09c-8.55-8.65-17-17.35-25.64-26s-17.13-17.27-25.77-25.83l-.13-.13a29.89,29.89,0,0,0-42.26.13c-8.57,8.63-17.17,17.22-25.69,25.9s-17.08,17.31-25.56,26l-12.74,13.06-12.68,13.11q-3.12,3.23-6.23,6.47l-5-4.71-26-24.41c-8.71-8.09-17.39-16.21-26.15-24.25s-17.51-16.09-26.3-24.1l-1.61-1.46h0a22.2,22.2,0,0,0-31.34,1.47q-12,13.2-23.92,26.46l-11.9,13.29-11.85,13.35c-7.87,8.92-15.75,17.84-23.55,26.83q-7.37,8.41-14.65,16.9-7.86-6.67-15.77-13.31c-9.28-7.75-18.52-15.53-27.9-23.18s-18.76-15.29-28.21-22.87-19-15.07-28.7-22.38c7.32,9.71,14.85,19.2,22.38,28.7s15.17,18.88,22.88,28.2,15.43,18.62,23.18,27.9,15.58,18.47,23.43,27.64h0a13.38,13.38,0,0,0,18.86,1.46l1.71-1.47q13.56-11.62,27-23.35t26.82-23.56l13.35-11.84L846,1427.61c2.82-2.53,5.61-5.08,8.42-7.61q4.59,5,9.19,10c8,8.76,16.16,17.44,24.25,26.15l24.41,26c8.19,8.61,16.32,17.28,24.56,25.84a27.59,27.59,0,0,0,39.06.82l.85-.82c8.79-8.4,17.59-16.81,26.31-25.28l13.12-12.67,13.06-12.74q13.08-12.72,26-25.56c1.55-1.52,3.09-3.06,4.64-4.59l4.69,4.67c8.6,8.6,17.31,17.09,26,25.64l26.09,25.51,26.24,25.36.82.79.12.12a28,28,0,0,0,39.62-.91l25.08-26.26q12.49-13.18,24.94-26.41t24.79-26.56q4.56-4.92,9.11-9.86,4.56,4.14,9.13,8.27c9.23,8.37,18.54,16.66,27.85,25l14,12.4,14.06,12.35q14.08,12.3,28.27,24.52l1.74,1.49a14.07,14.07,0,0,0,19.84-1.49q12.48-14.52,24.84-29.17l12.29-14.71q6.15-7.35,12.23-14.77l12.16-14.85,12-15c8-10,15.93-20.07,23.65-30.35-10.28,7.72-20.3,15.7-30.35,23.65Z"/><path class="cls-2" d="M1160.72,876.06c.45.38.9.77,1.35,1.14s1.16.94,1.74,1.4l.37.27C1161.24,876.38,1160.5,875.82,1160.72,876.06Z"/><path class="cls-2" d="M1140.08,674.45l-1.14,1.34-1.4,1.74-.27.38C1139.77,675,1140.32,674.22,1140.08,674.45Z"/></g></g></svg>