<svg xmlns="http://www.w3.org/2000/svg" viewBox="0 0 1374.73 1490.24"><defs><style>.cls-1{fill:#000015;}</style></defs><g id="Layer_2" data-name="Layer 2"><g id="Layer_1-2" data-name="Layer 1"><path class="cls-1" d="M842.77,67.18c1.81.33,1.22.21,0,0Z"/><path class="cls-1" d="M1156,192.71c7.57,6.07,2,1.51,0,0Z"/><path class="cls-1" d="M1243.1,699.25c.1-.14.21-.28.31-.43-.82,1-1.38,1.74-1.73,2.2.33-.42.67-.83,1-1.25Z"/><path class="cls-1" d="M760.85,761.78c-3.65-3.07-3-2.49-1.7-1.39l1.29,1.07Z"/><path class="cls-1" d="M1373.58,459.61a409.75,409.75,0,0,0-93.83-230.9q-8.93-10.76-18.63-20.83l0,0a600.24,600.24,0,0,0-96-82.25c-71.48-49.48-153.7-84.06-238.22-103.76-122.24-28.5-252.66-30.44-374.28,2S318.3,121.52,227.77,208.62c-85,81.76-149.56,183.69-188,295.08C-.92,621.53-9.88,748.92,10.57,871.66A733.28,733.28,0,0,0,150,1193.59c75.24,98.64,173.45,179.08,286.85,230.05C554.61,1476.56,685,1499.27,813.74,1487c124.43-11.9,245.29-54.19,348.7-124.75a818.48,818.48,0,0,0,71.39-55c12-10.26,11.31-32,0-42.43-12.73-11.68-29.68-10.94-42.43,0-5.06,4.34-10.14,8.64-15.29,12.86q-4,3.24-8,6.41c-1.18.94-2.38,1.87-3.56,2.82l-.71.56-1.3,1q-17.19,13.08-35.14,25.12a713,713,0,0,1-75.8,44.33c-13,6.56-26.17,12.64-39.5,18.46l-1.14.5-3.37,1.38q-4.8,2-9.63,3.86-10.75,4.21-21.64,8.09a709,709,0,0,1-85.1,24.38q-21.91,4.83-44.09,8.26c-2.9.45-5.92,1.11-8.9,1.48a17.54,17.54,0,0,0-2,.11l-5.92.73q-11.89,1.41-23.82,2.44a725.91,725.91,0,0,1-93.39,1.93q-23.23-1-46.37-3.52-5.44-.58-10.86-1.26l-3.83-.48-1.4-.21c-8-1.17-15.9-2.41-23.81-3.81A711.66,711.66,0,0,1,539,1398.81q-21.35-6.69-42.26-14.71-5.48-2.1-10.92-4.29l-4.34-1.76-2.9-1.21-2.88-1.23-4.28-1.88q-5.88-2.6-11.71-5.29a715.69,715.69,0,0,1-78.66-42.63q-18.63-11.67-36.53-24.47-8.46-6-16.75-12.34l-1.71-1.31-3.18-2.5q-6-4.74-11.89-9.6a720.75,720.75,0,0,1-63.41-59.15q-14.36-15.09-27.8-31-6.72-8-13.21-16.1l-3.41-4.3c-2.61-3.28-.47.34.47.82-1.48-.56-5.66-7.64-6.44-8.69a718,718,0,0,1-46.52-70.7c-14-24.29-28.06-49.78-38-76.07.46,1.16,2.36,5.7.38.88-.7-1.72-1.41-3.43-2.11-5.15q-1.89-4.65-3.71-9.31-4.05-10.41-7.78-20.93-7.11-20.08-13-40.58a711.56,711.56,0,0,1-18.77-84.13q-.9-5.66-1.72-11.33c-.15-1.05-.31-2.1-.46-3.15-.05-.53-.11-1.05-.16-1.42q-1.44-11.46-2.51-23-2.19-23.46-2.85-47a727.07,727.07,0,0,1,3.25-91.68c.68-6.81,1.48-13.6,2.33-20.39.1-.83.17-1.4.21-1.78.14-.87.29-1.75.41-2.63q.9-6.16,1.91-12.31,3.47-21.11,8.19-42a710.26,710.26,0,0,1,23.52-81.13q3.51-9.87,7.31-19.64,1.8-4.61,3.66-9.2c.55-1.36,1.11-2.72,1.67-4.08.24-.6.5-1.2.75-1.8l.06-.14c5.6-12.71,11.31-25.34,17.53-37.77a714.53,714.53,0,0,1,41.86-72.66q11.32-17.24,23.63-33.8c1.94-2.61,3.92-5.19,5.87-7.8v0c.88-1.1,1.74-2.21,2.61-3.32q6.72-8.49,13.7-16.79a719.66,719.66,0,0,1,56.43-59.8q15.59-14.73,32-28.52c6.61-5.55,13.35-10.94,20.14-16.27l.7-.52,3.69-2.79q5.09-3.83,10.24-7.55a736.77,736.77,0,0,1,75.38-48q19.41-10.76,39.45-20.28,9.53-4.53,19.17-8.77L480,112l4.26-1.79,1.55-.64c2.18-.89,4.36-1.76,6.55-2.63a689.85,689.85,0,0,1,85.43-27.62q22-5.55,44.38-9.61,11.25-2,22.56-3.69l3.82-.56,1.38-.17c4.41-.53,8.82-1.06,13.24-1.53a712.77,712.77,0,0,1,94.57-3.34q22.68.63,45.3,2.44,10.34.82,20.63,1.91,5.07.54,10.12,1.14l5.56.67c.77.1,2.34.37,3.42.57l-2.58-.49c26.28,4.94,52.57,8.52,78.61,14.89a716.44,716.44,0,0,1,69.41,20.7q16.2,5.75,32.11,12.3l2.41,1c2.24,1,4.49,1.94,6.73,2.93q7.13,3.17,14.18,6.48,26.49,12.48,51.81,27.3,21.77,12.76,42.44,27.24,9.13,6.41,18,13.15l0,0-.86-.68c1.12.9,2.27,1.77,3.39,2.66q4.07,3.19,8.07,6.48a503.89,503.89,0,0,1,43.1,39.55c3,3.11,5.94,6.29,8.91,9.45l.06.07q11.88,12.36,22.64,25.73l1.72,2.16c1.51,2,3,4,4.49,6q5.05,7,9.78,14.14a377.3,377.3,0,0,1,30.88,57.16,377.61,377.61,0,0,1,23.72,87.07,384,384,0,0,1,0,92.53A377.62,377.62,0,0,1,1288,622.44a378.29,378.29,0,0,1-22.88,44.34q-6.84,11.33-14.47,22.15-3.54,5-7.24,9.89l1.14-1.42c-.49.61-1,1.23-1.45,1.85l-.48.64c-.84,1.12-2.28,2.84-.94,1.13-1.24,1.55-2.48,3.09-3.74,4.61a375.22,375.22,0,0,1-36.87,38.67q-4.72,4.32-9.61,8.46c-1.76,1.49-3.52,3-5.3,4.42-1,.82-2,1.64-3,2.45l-1,.75c-7.8,5.56-15.39,11.33-23.43,16.55A338.44,338.44,0,0,1,1016.91,830a384.46,384.46,0,0,1-92.59,0,341.63,341.63,0,0,1-158.53-64.53c-1.53-1.11-3-2.24-4.55-3.37l-.39-.3.55.47-1-.79-1.29-1.07c-2.36-1.91-4.77-3.76-7.1-5.71q-9.09-7.6-17.69-15.76c-8.11-7.71-15.9-15.77-23.29-24.17l-.09-.11-3.4-3.92-.3-.34c-.7-.82-1.39-1.64-2.08-2.47-.93-1.11-1.86-2.22-2.77-3.34-.09-.11-.2-.21-.29-.32l-.87-1.15q-6-8-11.27-16.41a257.32,257.32,0,0,1-17.72-33.37,258.61,258.61,0,0,1-15.6-57.17,263.39,263.39,0,0,1,0-60.58,258.56,258.56,0,0,1,15.55-57,256.88,256.88,0,0,1,21.32-39q3.27-4.9,6.77-9.65c.27-.37.67-.89,1.1-1.43l-1.35,1.64c1.25-1.51,2.43-3.08,3.68-4.6q7.44-9.09,15.71-17.48t17.24-16q2.25-1.89,4.54-3.74l.5-.39-.78.55,1.14-.82c.57-.42,1.23-.9,1.79-1.29,2.28-1.67,4.53-3.37,6.86-5A258.33,258.33,0,0,1,793,358q9.15-3.65,18.52-6.55a188.8,188.8,0,0,0-28,27.58c-27.7,33.72-44,73.5-47.52,117.06-3.3,41.14,7.3,84,28.77,119.19,20.53,33.67,51.31,62.24,87.36,78.56,40.74,18.45,84.93,23.82,128.88,15,79.36-16,145.53-84.09,157.75-164.39a232.2,232.2,0,0,0,3.06-34.31c-.14-34.89-9.12-70.25-26.58-100.62a200.42,200.42,0,0,0-30.39-41.9l-.57-.65c-10.1-11-22.09-20.46-33.93-29.48a261.19,261.19,0,0,0-34.06-22.07c-26.83-14.49-56.18-25.11-86.29-30.09C867.74,275,804.63,284,748.43,312.9c-97,49.83-158.28,156.07-153.27,264.9,1.48,32.3,8,64.46,20.43,94.35,6.33,15.29,13.38,30.11,22.17,44.15a296.52,296.52,0,0,0,20.55,28.52c.54.73,1.1,1.45,1.69,2.18,55,67.42,134.24,116,219,135.37,42.82,9.78,87.49,13,131.2,8.4a417.48,417.48,0,0,0,130.34-35.45c74-33.66,137.07-91.59,178.35-161.5S1379.84,540.72,1373.58,459.61Zm-329.34,65a80.87,80.87,0,0,1-5.48,9.67c-.37.56-.77,1.1-1.16,1.65-1.44,1.65-2.88,3.3-4.44,4.85s-3.44,3.22-5.22,4.78l-.74.45a81.46,81.46,0,0,1-10.18,5.84,84.8,84.8,0,0,1-13.2,3.62,51.58,51.58,0,0,1-27-3.61,83,83,0,0,1-9.66-5.49c-.56-.37-1.11-.76-1.66-1.16-1.65-1.44-3.29-2.88-4.85-4.43s-3.22-3.45-4.78-5.23l-.45-.73a80.86,80.86,0,0,1-5.83-10.18,85.14,85.14,0,0,1-3.63-13.2,86.67,86.67,0,0,1,0-13.86,84.44,84.44,0,0,1,3.62-13.17,80.87,80.87,0,0,1,5.48-9.67c.37-.56.77-1.11,1.16-1.66,1.44-1.65,2.88-3.29,4.43-4.84s3.45-3.23,5.23-4.79a8.34,8.34,0,0,0,.73-.45,83.53,83.53,0,0,1,10.19-5.83,51.43,51.43,0,0,1,27.05-3.63,86,86,0,0,1,13.18,3.62,83,83,0,0,1,9.66,5.48c.56.37,1.11.77,1.66,1.17,1.65,1.43,3.29,2.88,4.84,4.43s3.23,3.45,4.79,5.22l.45.74a80.86,80.86,0,0,1,5.83,10.18,85.46,85.46,0,0,1,3.64,13.25c.19,2.29.3,4.57.32,6.88s-.13,4.59-.32,6.88A85.38,85.38,0,0,1,1044.24,524.58Zm-13.85,19.14c0,.19-.49.57-1.1,1A10.51,10.51,0,0,0,1030.39,543.72ZM957.66,538c-.19,0-.57-.49-1-1.1A10,10,0,0,0,957.66,538Zm5.74-72.74c0-.19.49-.57,1.09-1A11,11,0,0,0,963.4,465.24Zm73.71,6.84a10,10,0,0,0-1-1.1C1036.32,471,1036.7,471.47,1037.11,472.08Zm-9.4,150.24c-.16.14-.38.35-.62.59l-.53.38q-3.16,2.36-6.43,4.56a140.49,140.49,0,0,1-62.29,24.29,179.81,179.81,0,0,1-38.53,0A140.17,140.17,0,0,1,857,627.85q-2.78-1.87-5.47-3.86l.94.8-1.31-1.07c-.2-.14-.4-.28-.59-.43a30.78,30.78,0,0,1-2.5-2.11c-3.72-3.15-7.32-6.44-10.76-9.88q-5.79-5.79-11-12.11a7.31,7.31,0,0,0-.58-.62l-.39-.53c-1.57-2.11-3.08-4.26-4.55-6.44a174.58,174.58,0,0,1-14.19-25.46,176.53,176.53,0,0,1-10.11-36.82,179.91,179.91,0,0,1,0-38.54A176.53,176.53,0,0,1,806.59,454a174.58,174.58,0,0,1,14.19-25.46c1.24-1.85,2.54-3.68,3.85-5.48l-.8,1c.37-.43.72-.87,1.07-1.32.15-.19.28-.39.43-.59a28.54,28.54,0,0,1,2.12-2.5q4.71-5.58,9.88-10.76,5.79-5.79,12.1-11c.17-.14.39-.35.63-.59l.53-.39q3.17-2.34,6.43-4.55A140.17,140.17,0,0,1,919.31,368a143.75,143.75,0,0,1,75.36,10.1,176,176,0,0,1,25.46,14.19q2.77,1.88,5.47,3.86l-.95-.8c.43.36.88.71,1.32,1.07l.59.42c.22.17.48.37.73.58l-.12,0-1.2-1-.37-.27,1.4,1.18c-40-11.81-87.47,2.06-114,34.27a116.73,116.73,0,0,0-27.06,66c-1.87,21.95,4.17,45.46,15.58,64.23,11.1,18.29,27.84,34.16,47.43,43a116.33,116.33,0,0,0,71.69,8.42,101.47,101.47,0,0,0,25.78-8.82q-3.18,3.55-6.55,6.94Q1034,617.09,1027.71,622.32ZM701.88,704c-.5-.61-1-1.23-1.43-1.88l1.54,2Z"/><path class="cls-1" d="M701.42,428.5c3.35-4.05,1.54-1.92,0,0Z"/><path class="cls-1" d="M741.74,388c4.47-3.14,3.72-2.67,2.15-1.56l-1.79,1.29Z"/><path class="cls-1" d="M1121.54,1163.74l-14.85,12.15c-5,4-9.86,8.14-14.76,12.24l-14.72,12.29q-8.4,7.1-16.76,14.22-7.65-8.84-15.35-17.66l-12.35-14-12.4-14c-8.3-9.3-16.59-18.61-25-27.84s-16.74-18.46-25.14-27.66l0-.06a23,23,0,0,0-32.44-1.37l-1.56,1.43q-13.38,12.28-26.72,24.62t-26.56,24.79c-8.84,8.27-17.62,16.62-26.41,24.94l-5.17,5-5.89-6.1L820,1160.54c-8.55-8.65-17-17.36-25.64-26s-17.13-17.26-25.77-25.82l-.13-.13a29.88,29.88,0,0,0-42.26.13c-8.57,8.62-17.17,17.22-25.69,25.9s-17.08,17.31-25.55,26l-12.74,13.06-12.68,13.11q-3.13,3.23-6.23,6.47l-5-4.71-26-24.41c-8.71-8.09-17.39-16.21-26.15-24.25s-17.51-16.09-26.3-24.1l-1.6-1.46h0a22.18,22.18,0,0,0-31.33,1.47q-12,13.19-23.93,26.46l-11.9,13.29L479.23,1169q-11.82,13.38-23.56,26.83-7.35,8.42-14.65,16.9-7.86-6.69-15.77-13.31c-9.28-7.75-18.52-15.54-27.9-23.18s-18.76-15.29-28.2-22.87-19-15.07-28.7-22.38c7.31,9.71,14.85,19.2,22.38,28.7s15.17,18.88,22.87,28.2,15.43,18.62,23.18,27.9,15.58,18.47,23.43,27.64h0a13.38,13.38,0,0,0,18.87,1.45l1.7-1.46q13.58-11.62,27-23.35t26.83-23.56l13.34-11.85,13.29-11.9c2.82-2.53,5.62-5.08,8.43-7.62q4.59,5,9.19,10c8,8.76,16.16,17.44,24.25,26.15l24.4,26c8.19,8.61,16.32,17.28,24.56,25.84a27.61,27.61,0,0,0,39.07.82l.85-.82q13.18-12.61,26.31-25.28l13.11-12.68,13.06-12.74q13.08-12.71,26-25.55l4.64-4.59,4.7,4.67c8.6,8.6,17.3,17.09,25.95,25.64L804,1228.07l26.24,25.36.82.79.12.12a28,28,0,0,0,39.62-.91l25.08-26.27c8.33-8.79,16.67-17.56,24.94-26.41s16.55-17.68,24.79-26.55q4.57-4.92,9.11-9.86,4.56,4.14,9.13,8.27,13.86,12.56,27.85,25l14,12.41,14.06,12.34q14.09,12.32,28.27,24.53l1.74,1.49a14.07,14.07,0,0,0,19.84-1.49q12.5-14.52,24.84-29.17l12.29-14.72c4.1-4.9,8.2-9.8,12.24-14.76l12.15-14.85,12-15c8-10,15.94-20.07,23.66-30.35-10.28,7.72-20.31,15.7-30.35,23.66Z"/><path class="cls-1" d="M848.09,621.18l1.34,1.14c.58.47,1.16.94,1.75,1.4l.37.27C848.61,621.49,847.86,620.94,848.09,621.18Z"/><path class="cls-1" d="M827.45,419.56l-1.15,1.35c-.47.57-.93,1.16-1.4,1.74l-.27.37C827.13,420.08,827.69,419.34,827.45,419.56Z"/></g></g></svg>